<svg xmlns="http://www.w3.org/2000/svg" version="1.1" xmlns:xlink="http://www.w3.org/1999/xlink" xmlns:svgjs="http://svgjs.dev/svgjs" width="1000" height="1000" viewBox="0 0 1000 1000"><rect width="1000" height="1000" fill="#000000"></rect><g transform="matrix(0.7,0,0,0.7,149.57575757575756,420.2559853565558)"><svg viewBox="0 0 396 90" data-background-color="#ffffff" preserveAspectRatio="xMidYMid meet" height="227" width="1000" xmlns="http://www.w3.org/2000/svg" xmlns:xlink="http://www.w3.org/1999/xlink"><g id="tight-bounds" transform="matrix(1,0,0,1,0.2400000000000091,0.16652811774687848)"><svg viewBox="0 0 395.52 89.66694376450626" height="89.66694376450626" width="395.52"><g><svg viewBox="0 0 476.9210889122975 108.12109744034706" height="89.66694376450626" width="395.52"><g transform="matrix(1,0,0,1,81.40108891229751,26.52780172746992)"><svg viewBox="0 0 395.52 55.065493985407215" height="55.065493985407215" width="395.52"><g id="textblocktransform"><svg viewBox="0 0 395.52 55.065493985407215" height="55.065493985407215" width="395.52" id="textblock"><g><svg viewBox="0 0 395.52 55.065493985407215" height="55.065493985407215" width="395.52"><g transform="matrix(1,0,0,1,0,0)"><svg width="395.52" viewBox="3.1 -34.8 253.53 35.3" height="55.065493985407215" data-palette-color="#0074d9"><path d="M28.7-12.55Q28.7-5.5 25.15-2.5 21.6 0.5 16 0.5L16 0.5Q12 0.5 9.18-0.95 6.35-2.4 4.73-6.15 3.1-9.9 3.1-16.5L3.1-16.5 3.1-17.8Q3.1-24.4 4.73-28.15 6.35-31.9 9.18-33.35 12-34.8 16-34.8L16-34.8Q21.65-34.8 25.18-31.85 28.7-28.9 28.7-21.7L28.7-21.7 26.05-21.7Q26.05-27.65 23.3-30.03 20.55-32.4 16-32.4L16-32.4Q11.1-32.4 8.45-29.38 5.8-26.35 5.8-18.4L5.8-18.4 5.8-15.9Q5.8-7.95 8.45-4.93 11.1-1.9 16-1.9L16-1.9Q26.05-1.9 26.05-12.55L26.05-12.55 28.7-12.55ZM49.5 0.5Q43.25 0.5 39.72-3.23 36.2-6.95 36.2-16.5L36.2-16.5 36.2-17.8Q36.2-27.35 39.72-31.08 43.25-34.8 49.5-34.8L49.5-34.8Q55.75-34.8 59.27-31.08 62.8-27.35 62.8-17.8L62.8-17.8 62.8-16.5Q62.8-6.95 59.27-3.23 55.75 0.5 49.5 0.5L49.5 0.5ZM49.5-1.9Q54.45-1.9 57.27-4.95 60.1-8 60.1-15.9L60.1-15.9 60.1-18.4Q60.1-26.3 57.27-29.35 54.45-32.4 49.5-32.4L49.5-32.4Q44.55-32.4 41.72-29.35 38.9-26.3 38.9-18.4L38.9-18.4 38.9-15.9Q38.9-8 41.72-4.95 44.55-1.9 49.5-1.9L49.5-1.9ZM96.2 0L93.8 0 74.8-29.15 74.65-29.15 74.65 0 72.25 0 72.25-34.3 74.55-34.3 93.65-5.15 93.8-5.15 93.8-34.3 96.2-34.3 96.2 0ZM130.89 0L128.49 0 109.49-29.15 109.34-29.15 109.34 0 106.94 0 106.94-34.3 109.24-34.3 128.34-5.15 128.49-5.15 128.49-34.3 130.89-34.3 130.89 0ZM163.34 0L141.64 0 141.64-34.3 162.84-34.3 162.34-31.9 144.34-31.9 144.34-18.7 160.29-18.7 160.29-16.3 144.34-16.3 144.34-2.4 162.79-2.4 163.34 0ZM194.94-12.55Q194.94-5.5 191.39-2.5 187.84 0.5 182.24 0.5L182.24 0.5Q178.24 0.5 175.41-0.95 172.59-2.4 170.96-6.15 169.34-9.9 169.34-16.5L169.34-16.5 169.34-17.8Q169.34-24.4 170.96-28.15 172.59-31.9 175.41-33.35 178.24-34.8 182.24-34.8L182.24-34.8Q187.89-34.8 191.41-31.85 194.94-28.9 194.94-21.7L194.94-21.7 192.29-21.7Q192.29-27.65 189.54-30.03 186.79-32.4 182.24-32.4L182.24-32.4Q177.34-32.4 174.69-29.38 172.04-26.35 172.04-18.4L172.04-18.4 172.04-15.9Q172.04-7.95 174.69-4.93 177.34-1.9 182.24-1.9L182.24-1.9Q192.29-1.9 192.29-12.55L192.29-12.55 194.94-12.55ZM226.44-31.9L214.84-31.9 214.84 0 212.24 0 212.24-31.9 200.64-31.9 200.64-34.3 226.44-34.3 226.44-31.9ZM253.68 0L250.13-8.5 232.03-8.5 228.53 0 225.73 0 239.93-34.3 242.43-34.3 256.63 0 253.68 0ZM240.98-30.6L233.03-10.95 249.13-10.95 241.18-30.6 240.98-30.6Z" opacity="1" transform="matrix(1,0,0,1,0,0)" fill="#ffffff" class="wordmark-text-0" data-fill-palette-color="primary" id="text-0"></path></svg></g></svg></g></svg></g></svg></g><g><svg viewBox="0 0 68.40144735419851 108.12109744034706" height="108.12109744034706" width="68.40144735419851"><g><svg xmlns="http://www.w3.org/2000/svg" xmlns:xlink="http://www.w3.org/1999/xlink" version="1.1" x="0" y="0" viewBox="22.162 6.5 55.672089071149806 88" enable-background="new 0 0 100 100" xml:space="preserve" height="108.12109744034706" width="68.40144735419851" class="icon-icon-0" data-fill-palette-color="accent" id="icon-0"><g fill="#0074d9" data-fill-palette-color="accent"><g fill="#0074d9" data-fill-palette-color="accent"><path fill-rule="evenodd" clip-rule="evenodd" d="M61.449 22.663c4.463 0 8.081-3.618 8.081-8.082S65.912 6.5 61.449 6.5c-4.464 0-8.082 3.618-8.082 8.082S56.985 22.663 61.449 22.663zM61.449 8.745c3.224 0 5.837 2.613 5.837 5.836s-2.613 5.837-5.837 5.837-5.837-2.613-5.837-5.837S58.226 8.745 61.449 8.745zM77.648 37.335c-1.2-7.545-7.996-13.325-16.199-13.325-4.46 0-8.494 1.717-11.449 4.489-2.955-2.772-6.99-4.489-11.45-4.489-8.218 0-15.021 5.8-16.205 13.365-0.112 0.209-0.183 0.528-0.183 1.002V54.99c0 2.728 2.211 4.938 4.939 4.938 0.995 0 1.918-0.297 2.694-0.803v30.436c0 2.728 2.211 4.938 4.939 4.938 1.537 0 2.91-0.703 3.816-1.805 0.906 1.102 2.279 1.805 3.816 1.805 2.728 0 4.939-2.211 4.939-4.938V59.125c0.217 0.142 0.448 0.263 0.687 0.37 0.086 0.038 0.176 0.067 0.264 0.102 0.191 0.072 0.387 0.134 0.588 0.183 0.089 0.021 0.177 0.043 0.268 0.06 0.289 0.054 0.583 0.09 0.887 0.09s0.599-0.036 0.888-0.09c0.09-0.017 0.177-0.038 0.265-0.06 0.205-0.05 0.405-0.111 0.601-0.187 0.083-0.031 0.167-0.059 0.247-0.095 0.241-0.107 0.476-0.229 0.694-0.372v30.436c0 2.728 2.211 4.938 4.938 4.938 1.537 0 2.91-0.703 3.816-1.805 0.905 1.102 2.278 1.805 3.816 1.805 2.728 0 4.938-2.211 4.938-4.938V59.125c0.775 0.507 1.699 0.804 2.694 0.804 2.728 0 4.938-2.214 4.938-4.945V38.351C77.837 37.868 77.764 37.544 77.648 37.335zM45.244 37.375c-0.112 0.209-0.183 0.528-0.183 1.002v51.184c0 1.487-1.206 2.693-2.694 2.693-1.487 0-2.694-1.206-2.694-2.693V57.459c0-0.62-0.502-1.122-1.123-1.122-0.62 0-1.122 0.502-1.122 1.122v32.103c0 1.487-1.207 2.693-2.694 2.693-1.488 0-2.694-1.206-2.694-2.693V39.5c0-0.62-0.503-1.123-1.123-1.123-0.62 0-1.123 0.502-1.123 1.123v15.49c0 1.487-1.206 2.693-2.694 2.693s-2.694-1.206-2.694-2.693V39.725c0-7.439 6.385-13.47 14.143-13.47 3.85 0 7.359 1.488 9.921 3.894C46.812 32.214 45.666 34.678 45.244 37.375zM52.694 54.983c0 1.49-1.207 2.697-2.694 2.697-1.488 0-2.694-1.207-2.694-2.697V39.725c0-2.94 1.009-5.652 2.694-7.867 1.686 2.215 2.694 4.927 2.694 7.867V54.983zM75.592 54.983c0 1.49-1.206 2.697-2.693 2.697-1.488 0-2.694-1.207-2.694-2.697V43.092c0-0.62-0.503-1.123-1.122-1.123-0.62 0-1.123 0.502-1.123 1.123v46.47c0 1.487-1.206 2.693-2.693 2.693-1.488 0-2.694-1.206-2.694-2.693V57.459c0-0.62-0.502-1.122-1.122-1.122s-1.123 0.502-1.123 1.122v32.103c0 1.487-1.206 2.693-2.693 2.693-1.488 0-2.694-1.206-2.694-2.693v-51.21c0-0.483-0.072-0.807-0.188-1.016-0.427-2.681-1.57-5.132-3.223-7.187 2.562-2.406 6.071-3.894 9.921-3.894 7.758 0 14.143 6.031 14.143 13.47V54.983zM38.551 22.663c4.463 0 8.082-3.618 8.082-8.082S43.014 6.5 38.551 6.5c-4.463 0-8.082 3.618-8.082 8.082S34.088 22.663 38.551 22.663zM38.551 8.745c3.224 0 5.837 2.613 5.837 5.836s-2.613 5.837-5.837 5.837c-3.223 0-5.836-2.613-5.836-5.837S35.328 8.745 38.551 8.745z" fill="#ffffff" data-fill-palette-color="accent"></path></g></g></svg></g></svg></g></svg></g><defs></defs></svg><rect width="395.52" height="89.66694376450626" fill="none" stroke="none" visibility="hidden"></rect></g></svg></g></svg>